<?xml version="1.0" encoding="utf-8"?>
<!-- Generator: Adobe Illustrator 24.1.2, SVG Export Plug-In . SVG Version: 6.00 Build 0)  -->
<svg version="1.1"
	 id="svg8" inkscape:version="1.0 (4035a4fb49, 2020-05-01)" sodipodi:docname="logo1.svg" xmlns:cc="http://creativecommons.org/ns#" xmlns:dc="http://purl.org/dc/elements/1.1/" xmlns:inkscape="http://www.inkscape.org/namespaces/inkscape" xmlns:rdf="http://www.w3.org/1999/02/22-rdf-syntax-ns#" xmlns:sodipodi="http://sodipodi.sourceforge.net/DTD/sodipodi-0.dtd" xmlns:svg="http://www.w3.org/2000/svg"
	 xmlns="http://www.w3.org/2000/svg" xmlns:xlink="http://www.w3.org/1999/xlink" x="0px" y="0px" viewBox="0 0 130 149.6"
	 style="enable-background:new 0 0 130 149.6;" xml:space="preserve">
<style type="text/css">
	.st0{fill:#333333;}
	.st1{font-family:'ArialMT';}
	.st2{font-size:25px;}
	.st3{fill:#FE9601;}
	.st4{fill:#EA1E63;}
	.st5{fill:#00BCD5;}
	.st6{fill:#8CC34B;}
</style>
<sodipodi:namedview  bordercolor="#666666" borderopacity="1.0" id="base" inkscape:current-layer="layer1" inkscape:cx="120.68171" inkscape:cy="261.08696" inkscape:document-rotation="0" inkscape:document-units="mm" inkscape:pageopacity="0.0" inkscape:pageshadow="2" inkscape:window-height="705" inkscape:window-maximized="1" inkscape:window-width="1366" inkscape:window-x="-8" inkscape:window-y="-8" inkscape:zoom="0.94914512" pagecolor="#ffffff" showgrid="false">
	</sodipodi:namedview>
<text transform="matrix(1 0 0 1 7.523 137.5771)" class="st0 st1 st2">BeHealthy</text>
<g id="g866" transform="matrix(0.84549193,0,0,0.84549193,-5.6634882,0.38531619)">
	<path id="path24" sodipodi:nodetypes="ccc" class="st3" d="M54.5,13.7c2.6,40.3-37.7,82.3,4.2,114.8C22.3,110.7-2.8,50.2,54.5,13.7
		z"/>
	<path id="path26" sodipodi:nodetypes="ccc" class="st4" d="M65.7,9.2c20.4,25.2-56.1,85.4,7.8,122.6C37.2,89.5,129,40,65.7,9.2z"/>
	<path id="path28" sodipodi:nodetypes="ccsc" class="st5" d="M75.6,131.7C56.7,91.5,92.7,50.7,146.5,59
		c-1.5,14.2-15.2,17.4-28.6,19.3C98,81.2,73.4,94.9,75.6,131.7z"/>
	<path id="path30" sodipodi:nodetypes="ccccc" class="st6" d="M79.7,130c11-14.6,24.7-24.4,41.5-29c-11,7.2-21.3,11.3-34.8,31
		c3.3-0.1,46.3-1.5,58.5-50.6C129.3,92.1,86.2,79.4,79.7,130z"/>
	<ellipse id="path32" class="st5" cx="117.2" cy="34.4" rx="15.1" ry="14.9"/>
</g>
</svg>
