<?xml version="1.0" encoding="utf-8"?>
<!-- Generator: Adobe Illustrator 24.1.2, SVG Export Plug-In . SVG Version: 6.00 Build 0)  -->
<svg version="1.1"
	 id="svg8" inkscape:version="1.0 (4035a4fb49, 2020-05-01)" sodipodi:docname="logo2.svg" xmlns:cc="http://creativecommons.org/ns#" xmlns:dc="http://purl.org/dc/elements/1.1/" xmlns:inkscape="http://www.inkscape.org/namespaces/inkscape" xmlns:rdf="http://www.w3.org/1999/02/22-rdf-syntax-ns#" xmlns:sodipodi="http://sodipodi.sourceforge.net/DTD/sodipodi-0.dtd" xmlns:svg="http://www.w3.org/2000/svg"
	 xmlns="http://www.w3.org/2000/svg" xmlns:xlink="http://www.w3.org/1999/xlink" x="0px" y="0px" viewBox="0 0 182 61.1"
	 style="enable-background:new 0 0 182 61.1;" xml:space="preserve">
<style type="text/css">
	.st0{fill:#333333;}
	.st1{font-family:'ArialMT';}
	.st2{font-size:25px;}
	.st3{fill:#FE9601;}
	.st4{fill:#EA1E63;}
	.st5{fill:#00BCD5;}
	.st6{fill:#8CC34B;}
</style>
<sodipodi:namedview  bordercolor="#666666" borderopacity="1.0" id="base" inkscape:current-layer="layer1" inkscape:cx="120.68171" inkscape:cy="261.08696" inkscape:document-rotation="0" inkscape:document-units="mm" inkscape:pageopacity="0.0" inkscape:pageshadow="2" inkscape:window-height="705" inkscape:window-maximized="1" inkscape:window-width="1366" inkscape:window-x="-8" inkscape:window-y="-8" inkscape:zoom="0.94914512" pagecolor="#ffffff" showgrid="false">
	</sodipodi:namedview>
<text transform="matrix(1 0 0 1 61.1152 40.3345)" class="st0 st1 st2">BeHealthy</text>
<g id="g866" transform="matrix(0.37552988,0,0,0.37552988,0.85109599,2.4052136)">
	<path id="path24" sodipodi:nodetypes="ccc" class="st3" d="M48,18.5c2.6,40.3-37.7,82.3,4.2,114.8C15.8,115.6-9.3,55,48,18.5z"/>
	<path id="path26" sodipodi:nodetypes="ccc" class="st4" d="M59.2,14.1C79.6,39.3,3.1,99.4,67,136.7C30.7,94.4,122.5,44.9,59.2,14.1
		z"/>
	<path id="path28" sodipodi:nodetypes="ccsc" class="st5" d="M69.1,136.6C50.2,96.4,86.2,55.5,140,63.9
		c-1.5,14.2-15.2,17.4-28.6,19.3C91.5,86,66.9,99.8,69.1,136.6z"/>
	<path id="path30" sodipodi:nodetypes="ccccc" class="st6" d="M73.2,134.8c11-14.6,24.7-24.4,41.5-29c-11,7.2-21.3,11.3-34.8,31
		c3.3-0.1,46.3-1.5,58.5-50.6C122.9,97,79.7,84.2,73.2,134.8z"/>
	<ellipse id="path32" class="st5" cx="110.7" cy="39.3" rx="15.1" ry="14.9"/>
</g>
</svg>
